<mxfile host="app.diagrams.net" agent="Mozilla/5.0 (Windows NT 10.0; Win64; x64) AppleWebKit/537.36 (KHTML, like Gecko) Chrome/134.0.0.0 Safari/537.36 Edg/134.0.0.0" version="26.1.1">
  <diagram name="페이지-1" id="R0_Pb4F0egwYdNqpgsm1">
    <mxGraphModel dx="853" dy="684" grid="1" gridSize="10" guides="1" tooltips="1" connect="1" arrows="1" fold="1" page="1" pageScale="1" pageWidth="827" pageHeight="1169" math="0" shadow="0">
      <root>
        <mxCell id="0" />
        <mxCell id="1" parent="0" />
        <mxCell id="9k7y4AIrSqq0iL8WYdUw-8" value="" style="group" vertex="1" connectable="0" parent="1">
          <mxGeometry x="430" y="185" width="160" height="110" as="geometry" />
        </mxCell>
        <mxCell id="9k7y4AIrSqq0iL8WYdUw-6" value="" style="verticalLabelPosition=bottom;verticalAlign=top;html=1;shape=mxgraph.basic.layered_rect;dx=10;outlineConnect=0;whiteSpace=wrap;" vertex="1" parent="9k7y4AIrSqq0iL8WYdUw-8">
          <mxGeometry width="160" height="110" as="geometry" />
        </mxCell>
        <mxCell id="9k7y4AIrSqq0iL8WYdUw-1" value="Board {N} - {n} ..." style="swimlane;whiteSpace=wrap;html=1;" vertex="1" parent="9k7y4AIrSqq0iL8WYdUw-8">
          <mxGeometry width="150" height="100" as="geometry" />
        </mxCell>
        <mxCell id="9k7y4AIrSqq0iL8WYdUw-7" value="&lt;br&gt;N, N -&amp;gt; n, n" style="verticalLabelPosition=bottom;verticalAlign=top;html=1;shape=mxgraph.basic.patternFillRect;fillStyle=diag;step=5;fillStrokeWidth=0.2;fillStrokeColor=#dddddd;" vertex="1" parent="9k7y4AIrSqq0iL8WYdUw-1">
          <mxGeometry y="20" width="150" height="80" as="geometry" />
        </mxCell>
        <mxCell id="9k7y4AIrSqq0iL8WYdUw-10" value="CELL&lt;br&gt;CLICK" style="ellipse;whiteSpace=wrap;html=1;aspect=fixed;" vertex="1" parent="1">
          <mxGeometry x="40" y="205" width="80" height="80" as="geometry" />
        </mxCell>
        <mxCell id="9k7y4AIrSqq0iL8WYdUw-11" value="Board {N}" style="swimlane;whiteSpace=wrap;html=1;" vertex="1" parent="1">
          <mxGeometry x="230" y="185" width="150" height="100" as="geometry" />
        </mxCell>
        <mxCell id="9k7y4AIrSqq0iL8WYdUw-12" value="&lt;br&gt;N, N" style="verticalLabelPosition=bottom;verticalAlign=top;html=1;shape=mxgraph.basic.patternFillRect;fillStyle=diag;step=5;fillStrokeWidth=0.2;fillStrokeColor=#dddddd;" vertex="1" parent="9k7y4AIrSqq0iL8WYdUw-11">
          <mxGeometry y="20" width="150" height="80" as="geometry" />
        </mxCell>
        <mxCell id="9k7y4AIrSqq0iL8WYdUw-14" style="edgeStyle=orthogonalEdgeStyle;rounded=0;orthogonalLoop=1;jettySize=auto;html=1;exitX=1;exitY=0.5;exitDx=0;exitDy=0;exitPerimeter=0;entryX=0;entryY=0.5;entryDx=0;entryDy=0;entryPerimeter=0;" edge="1" parent="1" source="9k7y4AIrSqq0iL8WYdUw-12" target="9k7y4AIrSqq0iL8WYdUw-7">
          <mxGeometry relative="1" as="geometry" />
        </mxCell>
        <mxCell id="9k7y4AIrSqq0iL8WYdUw-15" value="" style="group" vertex="1" connectable="0" parent="1">
          <mxGeometry x="430" y="330" width="160" height="110" as="geometry" />
        </mxCell>
        <mxCell id="9k7y4AIrSqq0iL8WYdUw-16" value="" style="verticalLabelPosition=bottom;verticalAlign=top;html=1;shape=mxgraph.basic.layered_rect;dx=10;outlineConnect=0;whiteSpace=wrap;" vertex="1" parent="9k7y4AIrSqq0iL8WYdUw-15">
          <mxGeometry width="160" height="110" as="geometry" />
        </mxCell>
        <mxCell id="9k7y4AIrSqq0iL8WYdUw-17" value="Board {N} - {n} ..." style="swimlane;whiteSpace=wrap;html=1;" vertex="1" parent="9k7y4AIrSqq0iL8WYdUw-15">
          <mxGeometry width="150" height="100" as="geometry" />
        </mxCell>
        <mxCell id="9k7y4AIrSqq0iL8WYdUw-18" value="&lt;br&gt;N, N -&amp;gt; n, n" style="verticalLabelPosition=bottom;verticalAlign=top;html=1;shape=mxgraph.basic.patternFillRect;fillStyle=diag;step=5;fillStrokeWidth=0.2;fillStrokeColor=#dddddd;" vertex="1" parent="9k7y4AIrSqq0iL8WYdUw-17">
          <mxGeometry y="20" width="150" height="80" as="geometry" />
        </mxCell>
        <mxCell id="9k7y4AIrSqq0iL8WYdUw-19" style="edgeStyle=orthogonalEdgeStyle;rounded=0;orthogonalLoop=1;jettySize=auto;html=1;exitX=1;exitY=0.5;exitDx=0;exitDy=0;exitPerimeter=0;entryX=0;entryY=0.5;entryDx=0;entryDy=0;entryPerimeter=0;" edge="1" parent="1" source="9k7y4AIrSqq0iL8WYdUw-12" target="9k7y4AIrSqq0iL8WYdUw-18">
          <mxGeometry relative="1" as="geometry" />
        </mxCell>
        <mxCell id="9k7y4AIrSqq0iL8WYdUw-20" value="" style="endArrow=none;dashed=1;html=1;dashPattern=1 3;strokeWidth=2;rounded=0;" edge="1" parent="1">
          <mxGeometry width="50" height="50" relative="1" as="geometry">
            <mxPoint x="200" y="480" as="sourcePoint" />
            <mxPoint x="600" y="480" as="targetPoint" />
          </mxGeometry>
        </mxCell>
        <mxCell id="9k7y4AIrSqq0iL8WYdUw-21" value="&lt;font style=&quot;font-size: 14px;&quot;&gt;Try to ALL Positions&lt;/font&gt;" style="text;html=1;align=left;verticalAlign=middle;whiteSpace=wrap;rounded=0;" vertex="1" parent="1">
          <mxGeometry x="200" y="490" width="200" height="30" as="geometry" />
        </mxCell>
        <mxCell id="9k7y4AIrSqq0iL8WYdUw-22" value="" style="endArrow=none;html=1;rounded=0;" edge="1" parent="1">
          <mxGeometry relative="1" as="geometry">
            <mxPoint x="200" y="160" as="sourcePoint" />
            <mxPoint x="610" y="160" as="targetPoint" />
          </mxGeometry>
        </mxCell>
        <mxCell id="9k7y4AIrSqq0iL8WYdUw-23" value="N" style="resizable=0;html=1;whiteSpace=wrap;align=right;verticalAlign=bottom;" connectable="0" vertex="1" parent="9k7y4AIrSqq0iL8WYdUw-22">
          <mxGeometry x="1" relative="1" as="geometry" />
        </mxCell>
        <mxCell id="9k7y4AIrSqq0iL8WYdUw-24" value="" style="endArrow=none;html=1;rounded=0;" edge="1" parent="1">
          <mxGeometry relative="1" as="geometry">
            <mxPoint x="200" y="160" as="sourcePoint" />
            <mxPoint x="200" y="480" as="targetPoint" />
          </mxGeometry>
        </mxCell>
        <mxCell id="9k7y4AIrSqq0iL8WYdUw-25" value="N" style="resizable=0;html=1;whiteSpace=wrap;align=right;verticalAlign=bottom;" connectable="0" vertex="1" parent="9k7y4AIrSqq0iL8WYdUw-24">
          <mxGeometry x="1" relative="1" as="geometry" />
        </mxCell>
        <mxCell id="9k7y4AIrSqq0iL8WYdUw-26" value="&lt;font style=&quot;font-size: 14px;&quot;&gt;Try to &lt;br&gt;ALL Dimensions&lt;/font&gt;" style="text;html=1;align=left;verticalAlign=middle;whiteSpace=wrap;rounded=0;" vertex="1" parent="1">
          <mxGeometry x="620" y="160" width="110" height="40" as="geometry" />
        </mxCell>
        <mxCell id="9k7y4AIrSqq0iL8WYdUw-27" value="" style="endArrow=none;dashed=1;html=1;dashPattern=1 3;strokeWidth=2;rounded=0;" edge="1" parent="1">
          <mxGeometry width="50" height="50" relative="1" as="geometry">
            <mxPoint x="610" y="160" as="sourcePoint" />
            <mxPoint x="600" y="480" as="targetPoint" />
          </mxGeometry>
        </mxCell>
        <mxCell id="9k7y4AIrSqq0iL8WYdUw-30" style="edgeStyle=orthogonalEdgeStyle;rounded=0;orthogonalLoop=1;jettySize=auto;html=1;exitX=1;exitY=0.5;exitDx=0;exitDy=0;entryX=0;entryY=0.5;entryDx=0;entryDy=0;entryPerimeter=0;" edge="1" parent="1" source="9k7y4AIrSqq0iL8WYdUw-10" target="9k7y4AIrSqq0iL8WYdUw-12">
          <mxGeometry relative="1" as="geometry" />
        </mxCell>
        <mxCell id="9k7y4AIrSqq0iL8WYdUw-45" value="action" style="edgeLabel;html=1;align=center;verticalAlign=middle;resizable=0;points=[];" vertex="1" connectable="0" parent="9k7y4AIrSqq0iL8WYdUw-30">
          <mxGeometry x="-0.4182" y="1" relative="1" as="geometry">
            <mxPoint as="offset" />
          </mxGeometry>
        </mxCell>
        <mxCell id="9k7y4AIrSqq0iL8WYdUw-36" value="&lt;font style=&quot;font-size: 36px; background-color: light-dark(transparent, rgb(255, 86, 35));&quot;&gt;1 | Generate all best move dimensions&lt;/font&gt;" style="text;html=1;align=left;verticalAlign=middle;whiteSpace=wrap;rounded=0;fillColor=light-dark(transparent,#000000);strokeColor=light-dark(transparent,#FF1616);" vertex="1" parent="1">
          <mxGeometry x="40" y="80" width="760" height="50" as="geometry" />
        </mxCell>
        <mxCell id="9k7y4AIrSqq0iL8WYdUw-37" value="&lt;font style=&quot;font-size: 36px; background-color: light-dark(transparent, rgb(255, 40, 7));&quot;&gt;2 | Finding best move&lt;/font&gt;" style="text;html=1;align=left;verticalAlign=middle;whiteSpace=wrap;rounded=0;fillColor=light-dark(transparent,#000000);strokeColor=light-dark(transparent,#FF0000);" vertex="1" parent="1">
          <mxGeometry x="40" y="720" width="760" height="50" as="geometry" />
        </mxCell>
        <mxCell id="9k7y4AIrSqq0iL8WYdUw-40" value="Dimensions" style="shape=cube;whiteSpace=wrap;html=1;boundedLbl=1;backgroundOutline=1;darkOpacity=0.05;darkOpacity2=0.1;" vertex="1" parent="1">
          <mxGeometry x="670" y="295" width="120" height="80" as="geometry" />
        </mxCell>
        <mxCell id="9k7y4AIrSqq0iL8WYdUw-41" value="" style="endArrow=classic;html=1;rounded=0;exitX=0;exitY=0;exitDx=160;exitDy=60;exitPerimeter=0;entryX=0;entryY=0;entryDx=0;entryDy=30;entryPerimeter=0;" edge="1" parent="1" source="9k7y4AIrSqq0iL8WYdUw-6" target="9k7y4AIrSqq0iL8WYdUw-40">
          <mxGeometry width="50" height="50" relative="1" as="geometry">
            <mxPoint x="680" y="470" as="sourcePoint" />
            <mxPoint x="730" y="420" as="targetPoint" />
          </mxGeometry>
        </mxCell>
        <mxCell id="9k7y4AIrSqq0iL8WYdUw-44" value="result" style="edgeLabel;html=1;align=center;verticalAlign=middle;resizable=0;points=[];" vertex="1" connectable="0" parent="9k7y4AIrSqq0iL8WYdUw-41">
          <mxGeometry x="0.0625" y="-2" relative="1" as="geometry">
            <mxPoint as="offset" />
          </mxGeometry>
        </mxCell>
        <mxCell id="9k7y4AIrSqq0iL8WYdUw-42" value="" style="endArrow=classic;html=1;rounded=0;exitX=0;exitY=0;exitDx=160;exitDy=60;exitPerimeter=0;entryX=0;entryY=0;entryDx=0;entryDy=30;entryPerimeter=0;" edge="1" parent="1" source="9k7y4AIrSqq0iL8WYdUw-16" target="9k7y4AIrSqq0iL8WYdUw-40">
          <mxGeometry width="50" height="50" relative="1" as="geometry">
            <mxPoint x="630" y="375" as="sourcePoint" />
            <mxPoint x="704" y="451" as="targetPoint" />
          </mxGeometry>
        </mxCell>
        <mxCell id="9k7y4AIrSqq0iL8WYdUw-43" value="result" style="edgeLabel;html=1;align=center;verticalAlign=middle;resizable=0;points=[];" vertex="1" connectable="0" parent="9k7y4AIrSqq0iL8WYdUw-42">
          <mxGeometry x="-0.0184" y="-1" relative="1" as="geometry">
            <mxPoint as="offset" />
          </mxGeometry>
        </mxCell>
        <mxCell id="9k7y4AIrSqq0iL8WYdUw-46" value="Dimensions" style="shape=cube;whiteSpace=wrap;html=1;boundedLbl=1;backgroundOutline=1;darkOpacity=0.05;darkOpacity2=0.1;" vertex="1" parent="1">
          <mxGeometry x="40" y="830" width="120" height="80" as="geometry" />
        </mxCell>
        <mxCell id="9k7y4AIrSqq0iL8WYdUw-50" value="" style="group" vertex="1" connectable="0" parent="1">
          <mxGeometry x="420" y="830" width="160" height="110" as="geometry" />
        </mxCell>
        <mxCell id="9k7y4AIrSqq0iL8WYdUw-51" value="" style="verticalLabelPosition=bottom;verticalAlign=top;html=1;shape=mxgraph.basic.layered_rect;dx=10;outlineConnect=0;whiteSpace=wrap;" vertex="1" parent="9k7y4AIrSqq0iL8WYdUw-50">
          <mxGeometry width="160" height="110" as="geometry" />
        </mxCell>
        <mxCell id="9k7y4AIrSqq0iL8WYdUw-52" value="Dimension 2 ..." style="swimlane;whiteSpace=wrap;html=1;" vertex="1" parent="9k7y4AIrSqq0iL8WYdUw-50">
          <mxGeometry width="150" height="100" as="geometry" />
        </mxCell>
        <mxCell id="9k7y4AIrSqq0iL8WYdUw-53" value="" style="verticalLabelPosition=bottom;verticalAlign=top;html=1;shape=mxgraph.basic.patternFillRect;fillStyle=diag;step=5;fillStrokeWidth=0.2;fillStrokeColor=#dddddd;" vertex="1" parent="9k7y4AIrSqq0iL8WYdUw-52">
          <mxGeometry y="20" width="150" height="80" as="geometry" />
        </mxCell>
        <mxCell id="9k7y4AIrSqq0iL8WYdUw-55" style="edgeStyle=orthogonalEdgeStyle;rounded=0;orthogonalLoop=1;jettySize=auto;html=1;exitX=0;exitY=0;exitDx=120;exitDy=50;exitPerimeter=0;entryX=0;entryY=0.5;entryDx=0;entryDy=0;entryPerimeter=0;" edge="1" parent="1" source="9k7y4AIrSqq0iL8WYdUw-46" target="9k7y4AIrSqq0iL8WYdUw-53">
          <mxGeometry relative="1" as="geometry" />
        </mxCell>
        <mxCell id="9k7y4AIrSqq0iL8WYdUw-56" value="" style="group" vertex="1" connectable="0" parent="1">
          <mxGeometry x="242" y="830" width="160" height="110" as="geometry" />
        </mxCell>
        <mxCell id="9k7y4AIrSqq0iL8WYdUw-57" value="" style="verticalLabelPosition=bottom;verticalAlign=top;html=1;shape=mxgraph.basic.layered_rect;dx=10;outlineConnect=0;whiteSpace=wrap;" vertex="1" parent="9k7y4AIrSqq0iL8WYdUw-56">
          <mxGeometry width="160" height="110" as="geometry" />
        </mxCell>
        <mxCell id="9k7y4AIrSqq0iL8WYdUw-58" value="Dimension 1" style="swimlane;whiteSpace=wrap;html=1;" vertex="1" parent="9k7y4AIrSqq0iL8WYdUw-56">
          <mxGeometry width="150" height="100" as="geometry" />
        </mxCell>
        <mxCell id="9k7y4AIrSqq0iL8WYdUw-59" value="" style="verticalLabelPosition=bottom;verticalAlign=top;html=1;shape=mxgraph.basic.patternFillRect;fillStyle=diag;step=5;fillStrokeWidth=0.2;fillStrokeColor=#dddddd;" vertex="1" parent="9k7y4AIrSqq0iL8WYdUw-58">
          <mxGeometry y="20" width="150" height="80" as="geometry" />
        </mxCell>
        <mxCell id="9k7y4AIrSqq0iL8WYdUw-60" value="" style="group" vertex="1" connectable="0" parent="1">
          <mxGeometry x="600" y="830" width="160" height="110" as="geometry" />
        </mxCell>
        <mxCell id="9k7y4AIrSqq0iL8WYdUw-61" value="" style="verticalLabelPosition=bottom;verticalAlign=top;html=1;shape=mxgraph.basic.layered_rect;dx=10;outlineConnect=0;whiteSpace=wrap;" vertex="1" parent="9k7y4AIrSqq0iL8WYdUw-60">
          <mxGeometry width="160" height="110" as="geometry" />
        </mxCell>
        <mxCell id="9k7y4AIrSqq0iL8WYdUw-62" value="Dimension {n}" style="swimlane;whiteSpace=wrap;html=1;" vertex="1" parent="9k7y4AIrSqq0iL8WYdUw-60">
          <mxGeometry width="150" height="100" as="geometry" />
        </mxCell>
        <mxCell id="9k7y4AIrSqq0iL8WYdUw-63" value="" style="verticalLabelPosition=bottom;verticalAlign=top;html=1;shape=mxgraph.basic.patternFillRect;fillStyle=diag;step=5;fillStrokeWidth=0.2;fillStrokeColor=#dddddd;" vertex="1" parent="9k7y4AIrSqq0iL8WYdUw-62">
          <mxGeometry y="20" width="150" height="80" as="geometry" />
        </mxCell>
        <mxCell id="9k7y4AIrSqq0iL8WYdUw-64" style="edgeStyle=orthogonalEdgeStyle;rounded=0;orthogonalLoop=1;jettySize=auto;html=1;exitX=0;exitY=0;exitDx=160;exitDy=60;exitPerimeter=0;entryX=0;entryY=0.5;entryDx=0;entryDy=0;entryPerimeter=0;" edge="1" parent="1" source="9k7y4AIrSqq0iL8WYdUw-51" target="9k7y4AIrSqq0iL8WYdUw-63">
          <mxGeometry relative="1" as="geometry" />
        </mxCell>
        <mxCell id="9k7y4AIrSqq0iL8WYdUw-66" value="Variable" style="swimlane;fontStyle=0;childLayout=stackLayout;horizontal=1;startSize=26;horizontalStack=0;resizeParent=1;resizeParentMax=0;resizeLast=0;collapsible=1;marginBottom=0;align=center;fontSize=14;" vertex="1" parent="1">
          <mxGeometry x="40" y="970" width="120" height="56" as="geometry" />
        </mxCell>
        <mxCell id="9k7y4AIrSqq0iL8WYdUw-67" value="float Score" style="text;strokeColor=none;fillColor=none;spacingLeft=4;spacingRight=4;overflow=hidden;rotatable=0;points=[[0,0.5],[1,0.5]];portConstraint=eastwest;fontSize=12;whiteSpace=wrap;html=1;" vertex="1" parent="9k7y4AIrSqq0iL8WYdUw-66">
          <mxGeometry y="26" width="120" height="30" as="geometry" />
        </mxCell>
        <mxCell id="9k7y4AIrSqq0iL8WYdUw-74" value="" style="group" vertex="1" connectable="0" parent="1">
          <mxGeometry x="200" y="530" width="360" height="100" as="geometry" />
        </mxCell>
        <mxCell id="9k7y4AIrSqq0iL8WYdUw-33" value="&lt;h1 style=&quot;margin-top: 0px;&quot;&gt;&lt;font face=&quot;Arial, sans-serif&quot;&gt;Time Complexity : O(xy^n^2)&lt;/font&gt;&lt;/h1&gt;" style="text;html=1;align=center;verticalAlign=middle;whiteSpace=wrap;rounded=0;" vertex="1" parent="9k7y4AIrSqq0iL8WYdUw-74">
          <mxGeometry width="345" height="80" as="geometry" />
        </mxCell>
        <mxCell id="9k7y4AIrSqq0iL8WYdUw-34" value="" style="shape=partialRectangle;whiteSpace=wrap;html=1;bottom=0;right=0;fillColor=none;" vertex="1" parent="9k7y4AIrSqq0iL8WYdUw-74">
          <mxGeometry width="120" height="60" as="geometry" />
        </mxCell>
        <mxCell id="9k7y4AIrSqq0iL8WYdUw-35" value="x: Column length&lt;br&gt;y: Row length&lt;br&gt;n: Dimension number" style="text;html=1;align=left;verticalAlign=middle;whiteSpace=wrap;rounded=0;" vertex="1" parent="9k7y4AIrSqq0iL8WYdUw-74">
          <mxGeometry x="10" y="50" width="350" height="50" as="geometry" />
        </mxCell>
        <mxCell id="9k7y4AIrSqq0iL8WYdUw-75" value="" style="group" vertex="1" connectable="0" parent="1">
          <mxGeometry x="200" y="1030" width="470" height="90" as="geometry" />
        </mxCell>
        <mxCell id="9k7y4AIrSqq0iL8WYdUw-71" value="&lt;h1 style=&quot;margin-top: 0px;&quot;&gt;&lt;font face=&quot;Arial, sans-serif&quot;&gt;Time Complexity : O(n&lt;/font&gt;₁&lt;font face=&quot;Arial, sans-serif&quot;&gt;&amp;nbsp;+ n&lt;/font&gt;₂&lt;font face=&quot;Arial, sans-serif&quot;&gt;&amp;nbsp;+ n&lt;/font&gt;₃&lt;font face=&quot;Arial, sans-serif&quot;&gt;&amp;nbsp;+ ...)&amp;nbsp;&lt;/font&gt;&lt;/h1&gt;" style="text;html=1;align=center;verticalAlign=middle;whiteSpace=wrap;rounded=0;" vertex="1" parent="9k7y4AIrSqq0iL8WYdUw-75">
          <mxGeometry width="450.4166666666667" height="72" as="geometry" />
        </mxCell>
        <mxCell id="9k7y4AIrSqq0iL8WYdUw-72" value="" style="shape=partialRectangle;whiteSpace=wrap;html=1;bottom=0;right=0;fillColor=none;" vertex="1" parent="9k7y4AIrSqq0iL8WYdUw-75">
          <mxGeometry width="156.6666666666667" height="54.00000000000001" as="geometry" />
        </mxCell>
        <mxCell id="9k7y4AIrSqq0iL8WYdUw-73" value="n: Dimension number" style="text;html=1;align=left;verticalAlign=middle;whiteSpace=wrap;rounded=0;" vertex="1" parent="9k7y4AIrSqq0iL8WYdUw-75">
          <mxGeometry x="13.06" y="45" width="456.94" height="18" as="geometry" />
        </mxCell>
        <mxCell id="9k7y4AIrSqq0iL8WYdUw-76" style="edgeStyle=orthogonalEdgeStyle;rounded=0;orthogonalLoop=1;jettySize=auto;html=1;exitX=0;exitY=0;exitDx=85;exitDy=110;exitPerimeter=0;entryX=1;entryY=0.5;entryDx=0;entryDy=0;" edge="1" parent="1" source="9k7y4AIrSqq0iL8WYdUw-57" target="9k7y4AIrSqq0iL8WYdUw-67">
          <mxGeometry relative="1" as="geometry" />
        </mxCell>
        <mxCell id="9k7y4AIrSqq0iL8WYdUw-77" style="edgeStyle=orthogonalEdgeStyle;rounded=0;orthogonalLoop=1;jettySize=auto;html=1;exitX=0;exitY=0;exitDx=85;exitDy=110;exitPerimeter=0;entryX=1;entryY=0.5;entryDx=0;entryDy=0;" edge="1" parent="1" source="9k7y4AIrSqq0iL8WYdUw-51" target="9k7y4AIrSqq0iL8WYdUw-67">
          <mxGeometry relative="1" as="geometry" />
        </mxCell>
        <mxCell id="9k7y4AIrSqq0iL8WYdUw-78" style="edgeStyle=orthogonalEdgeStyle;rounded=0;orthogonalLoop=1;jettySize=auto;html=1;exitX=0;exitY=0;exitDx=85;exitDy=110;exitPerimeter=0;entryX=1;entryY=0.5;entryDx=0;entryDy=0;" edge="1" parent="1" source="9k7y4AIrSqq0iL8WYdUw-61" target="9k7y4AIrSqq0iL8WYdUw-67">
          <mxGeometry relative="1" as="geometry" />
        </mxCell>
        <mxCell id="9k7y4AIrSqq0iL8WYdUw-79" value="Sum score percent each uniques" style="edgeLabel;html=1;align=center;verticalAlign=middle;resizable=0;points=[];" vertex="1" connectable="0" parent="9k7y4AIrSqq0iL8WYdUw-78">
          <mxGeometry x="0.7808" y="-5" relative="1" as="geometry">
            <mxPoint x="35" y="-10" as="offset" />
          </mxGeometry>
        </mxCell>
        <mxCell id="9k7y4AIrSqq0iL8WYdUw-81" value="" style="endArrow=none;html=1;rounded=0;" edge="1" parent="1">
          <mxGeometry relative="1" as="geometry">
            <mxPoint x="240" y="800" as="sourcePoint" />
            <mxPoint x="760" y="800" as="targetPoint" />
          </mxGeometry>
        </mxCell>
        <mxCell id="9k7y4AIrSqq0iL8WYdUw-82" value="N" style="resizable=0;html=1;whiteSpace=wrap;align=right;verticalAlign=bottom;" connectable="0" vertex="1" parent="9k7y4AIrSqq0iL8WYdUw-81">
          <mxGeometry x="1" relative="1" as="geometry" />
        </mxCell>
      </root>
    </mxGraphModel>
  </diagram>
</mxfile>
